<svg xmlns="http://www.w3.org/2000/svg" width="119.606" height="126.934" viewBox="0 0 119.606 126.934">
  <g id="backpack" transform="translate(-3.664)">
    <g id="Grupo_85" data-name="Grupo 85">
      <path id="Caminho_44" data-name="Caminho 44" d="M21.528,104.172a8.18,8.18,0,0,1-8.182,8.181h0a8.18,8.18,0,0,1-8.182-8.181V80.436a8.181,8.181,0,0,1,8.182-8.183h0a8.182,8.182,0,0,1,8.182,8.183Z" fill="#565656"/>
    </g>
    <g id="Grupo_86" data-name="Grupo 86">
      <path id="Caminho_45" data-name="Caminho 45" d="M13.346,72.254a8.182,8.182,0,0,0-8.182,8.183v1.61a8.182,8.182,0,0,0,16.364,0v-1.61A8.181,8.181,0,0,0,13.346,72.254Z" fill="#c9c9c9"/>
    </g>
    <g id="Grupo_87" data-name="Grupo 87">
      <path id="Caminho_46" data-name="Caminho 46" d="M13.346,113.853a9.692,9.692,0,0,1-9.682-9.681V80.437a9.682,9.682,0,1,1,19.364,0v23.735A9.692,9.692,0,0,1,13.346,113.853Zm0-40.1a6.69,6.69,0,0,0-6.682,6.683v23.735a6.682,6.682,0,0,0,13.364,0V80.437A6.69,6.69,0,0,0,13.346,73.754Z" fill="#33363a"/>
    </g>
    <g id="Grupo_88" data-name="Grupo 88">
      <path id="Caminho_47" data-name="Caminho 47" d="M121.77,104.172a8.18,8.18,0,0,1-8.183,8.181h0a8.179,8.179,0,0,1-8.181-8.181V80.436a8.181,8.181,0,0,1,8.181-8.183h0a8.182,8.182,0,0,1,8.183,8.183Z" fill="#565656"/>
    </g>
    <g id="Grupo_89" data-name="Grupo 89">
      <path id="Caminho_48" data-name="Caminho 48" d="M113.587,72.254a8.181,8.181,0,0,0-8.181,8.183v1.61a8.182,8.182,0,0,0,16.364,0v-1.61A8.182,8.182,0,0,0,113.587,72.254Z" fill="#c9c9c9"/>
    </g>
    <g id="Grupo_90" data-name="Grupo 90">
      <path id="Caminho_49" data-name="Caminho 49" d="M113.587,113.853a9.692,9.692,0,0,1-9.681-9.681V80.437a9.682,9.682,0,1,1,19.364,0v23.735A9.693,9.693,0,0,1,113.587,113.853Zm0-40.1a6.69,6.69,0,0,0-6.681,6.683v23.735a6.682,6.682,0,0,0,13.364,0V80.437A6.691,6.691,0,0,0,113.587,73.754Z" fill="#33363a"/>
    </g>
    <g id="Grupo_91" data-name="Grupo 91">
      <path id="Caminho_50" data-name="Caminho 50" d="M66.922,11.39H60.01A44.98,44.98,0,0,0,15.084,56.318v51.838a17.278,17.278,0,0,0,17.279,17.279H94.568a17.279,17.279,0,0,0,17.281-17.279V56.317A44.978,44.978,0,0,0,66.922,11.39Z" fill="#c9c9c9"/>
    </g>
    <g id="Grupo_92" data-name="Grupo 92">
      <path id="Caminho_51" data-name="Caminho 51" d="M66.922,23.593H60.01A44.98,44.98,0,0,0,15.084,68.521v39.635a17.278,17.278,0,0,0,17.279,17.279H94.568a17.279,17.279,0,0,0,17.281-17.279V68.52A44.978,44.978,0,0,0,66.922,23.593Z" fill="#f9f9f9"/>
    </g>
    <g id="Grupo_93" data-name="Grupo 93">
      <path id="Caminho_52" data-name="Caminho 52" d="M95.631,96.541a14.652,14.652,0,0,1-14.65,14.652H45.954A14.653,14.653,0,0,1,31.3,96.541V85.552A14.65,14.65,0,0,1,45.954,70.9H80.981a14.649,14.649,0,0,1,14.65,14.648V96.541Z" fill="#565656"/>
    </g>
    <g id="Grupo_94" data-name="Grupo 94">
      <path id="Caminho_53" data-name="Caminho 53" d="M45.954,70.9a14.631,14.631,0,0,0-12.6,7.205,14.631,14.631,0,0,0,12.6,7.209H80.981a14.626,14.626,0,0,0,12.6-7.209,14.626,14.626,0,0,0-12.6-7.205Z" fill="#c9c9c9"/>
    </g>
    <g id="Grupo_95" data-name="Grupo 95">
      <path id="Caminho_54" data-name="Caminho 54" d="M95.571,58.81a1.5,1.5,0,0,1-1.5-1.5A28.343,28.343,0,0,0,65.759,29H61.174A28.343,28.343,0,0,0,32.863,57.31a1.5,1.5,0,0,1-3,0A31.347,31.347,0,0,1,61.174,26h4.585A31.346,31.346,0,0,1,97.071,57.31,1.5,1.5,0,0,1,95.571,58.81Z" fill="#33363a"/>
    </g>
    <g id="Grupo_96" data-name="Grupo 96">
      <path id="Caminho_55" data-name="Caminho 55" d="M95.85,68.479a2.338,2.338,0,0,1-2.334-2.336V63.51a2.334,2.334,0,0,1,4.668,0v2.633A2.337,2.337,0,0,1,95.85,68.479Z" fill="#33363a"/>
    </g>
    <path id="Caminho_56" data-name="Caminho 56" d="M78.5,11.35a15.623,15.623,0,0,0-30.055,0A46.509,46.509,0,0,0,13.584,56.317v51.838a18.8,18.8,0,0,0,18.779,18.779H94.568a18.8,18.8,0,0,0,18.781-18.779V56.317A46.508,46.508,0,0,0,78.5,11.35ZM63.467,3a12.655,12.655,0,0,1,11.594,7.619,46.459,46.459,0,0,0-8.139-.729H60.01a46.436,46.436,0,0,0-8.137.729A12.656,12.656,0,0,1,63.467,3ZM110.35,108.155a15.8,15.8,0,0,1-15.781,15.779H32.364a15.8,15.8,0,0,1-15.779-15.779V56.317a43.5,43.5,0,0,1,31.294-41.69c-.022.337-.051.672-.051,1.015a1.5,1.5,0,0,0,3,0,12.7,12.7,0,0,1,.143-1.8,43.455,43.455,0,0,1,9.041-.953h6.912a43.39,43.39,0,0,1,9.042.954,12.69,12.69,0,0,1,.143,1.8,1.5,1.5,0,0,0,3,0c0-.342-.03-.677-.051-1.014a43.5,43.5,0,0,1,31.294,41.69v51.837Z" fill="#33363a"/>
    <g id="Grupo_97" data-name="Grupo 97">
      <path id="Caminho_57" data-name="Caminho 57" d="M80.981,69.4H45.954A16.167,16.167,0,0,0,29.8,85.551V96.54a16.17,16.17,0,0,0,16.15,16.152H80.981A16.17,16.17,0,0,0,97.131,96.54V85.552A16.168,16.168,0,0,0,80.981,69.4Zm0,40.29H45.954a13.145,13.145,0,0,1-11.3-6.457h1.98a1.5,1.5,0,1,0,0-3H33.341a13.115,13.115,0,0,1-.538-3.695V85.552A13.164,13.164,0,0,1,45.953,72.4H80.98A13.164,13.164,0,0,1,94.13,85.552V96.541a13.069,13.069,0,0,1-.538,3.695H90.3a1.5,1.5,0,0,0,0,3h1.98A13.137,13.137,0,0,1,80.981,109.693Z" fill="#33363a"/>
      <path id="Caminho_58" data-name="Caminho 58" d="M51.967,100.236H44.3a1.5,1.5,0,0,0,0,3h7.666a1.5,1.5,0,1,0,0-3Z" fill="#33363a"/>
      <path id="Caminho_59" data-name="Caminho 59" d="M67.3,100.236H59.634a1.5,1.5,0,0,0,0,3H67.3a1.5,1.5,0,0,0,0-3Z" fill="#33363a"/>
      <path id="Caminho_60" data-name="Caminho 60" d="M82.632,100.236H74.966a1.5,1.5,0,0,0,0,3h7.666a1.5,1.5,0,0,0,0-3Z" fill="#33363a"/>
    </g>
  </g>
</svg>
