<svg xmlns="http://www.w3.org/2000/svg" width="319.03" height="151.666" viewBox="0 0 319.03 151.666">
  <g id="eggs" transform="translate(-839.395 -441)">
    <g id="egg" transform="translate(926.729 441)">
      <g id="Grupo_66" data-name="Grupo 66" transform="translate(15.462 1.796)">
        <path id="Caminho_34" data-name="Caminho 34" d="M130.513,91.9a57.674,57.674,0,0,1-115.347,0c0-31.854,25.82-90.4,57.675-90.4S130.513,60.048,130.513,91.9Z" transform="translate(-15.166 -1.5)" fill="#fffffa"/>
      </g>
      <g id="Grupo_67" data-name="Grupo 67" transform="translate(73.137 1.796)">
        <path id="Caminho_35" data-name="Caminho 35" d="M63.334,1.5V149.574A57.672,57.672,0,0,0,121.007,91.9C121.007,60.048,95.186,1.5,63.334,1.5Z" transform="translate(-63.334 -1.5)" fill="#f9f9e4"/>
      </g>
      <g id="Grupo_70" data-name="Grupo 70" transform="translate(24.662 114.678)">
        <g id="Grupo_68" data-name="Grupo 68">
          <path id="Caminho_36" data-name="Caminho 36" d="M35.585,106.014c5.322,5.816,11.183,8.664,8.068,11.515s-9.957.444-15.281-5.371-7.108-12.844-3.99-15.7S30.265,100.193,35.585,106.014Z" transform="translate(-22.849 -95.775)" fill="#cbbf91"/>
        </g>
        <g id="Grupo_69" data-name="Grupo 69" transform="translate(75.275)">
          <path id="Caminho_37" data-name="Caminho 37" d="M94.653,106.014c-5.322,5.816-11.183,8.664-8.068,11.515s9.957.444,15.281-5.371,7.108-12.844,3.99-15.7S99.973,100.193,94.653,106.014Z" transform="translate(-85.716 -95.775)" fill="#cbbf91"/>
        </g>
      </g>
      <g id="Grupo_71" data-name="Grupo 71" transform="translate(13.666)">
        <path id="Caminho_38" data-name="Caminho 38" d="M73.137,151.666A59.537,59.537,0,0,1,13.666,92.2c0-16.694,6.72-39.47,17.121-58.025C43.14,12.137,58.181,0,73.137,0s30,12.137,42.347,34.173c10.4,18.554,17.121,41.331,17.121,58.025A59.536,59.536,0,0,1,73.137,151.666Zm0-148.074c-18.348,0-32.446,20.261-39.216,32.337C23.8,53.987,17.258,76.074,17.258,92.2a55.878,55.878,0,0,0,111.755,0c0-16.124-6.54-38.21-16.663-56.268C105.582,23.853,91.484,3.592,73.137,3.592Z" transform="translate(-13.666)" fill="#5a5a5a"/>
      </g>
      <g id="Grupo_72" data-name="Grupo 72" transform="translate(66.177 67.185)">
        <path id="Caminho_39" data-name="Caminho 39" d="M98.354,96.054c-7.505,16.254-22.829,25.164-34.23,19.9s-6.1-14.834,1.4-31.09S79.9,51.83,91.3,57.1,105.856,79.8,98.354,96.054Z" transform="translate(-57.521 -56.111)" fill="#cbbf91"/>
      </g>
      <g id="Grupo_73" data-name="Grupo 73" transform="translate(73.138 67.186)">
        <path id="Caminho_40" data-name="Caminho 40" d="M90.149,57.1c-11.4-5.265-18.269,11.516-25.771,27.768l-1.043,2.251V116.1c11.361,4.92,26.447-3.962,33.872-20.049C104.709,79.8,101.549,62.358,90.149,57.1Z" transform="translate(-63.335 -56.111)" fill="#cbbf91"/>
      </g>
      <g id="Grupo_74" data-name="Grupo 74" transform="translate(36.308 42.491)">
        <circle id="Elipse_7" data-name="Elipse 7" cx="3.664" cy="3.664" r="3.664" fill="#cbbf91"/>
      </g>
      <g id="Grupo_75" data-name="Grupo 75" transform="translate(51.76 27.196)">
        <circle id="Elipse_8" data-name="Elipse 8" cx="1.433" cy="1.433" r="1.433" fill="#cbbf91"/>
      </g>
      <g id="Grupo_76" data-name="Grupo 76" transform="translate(43.636 65.113)">
        <circle id="Elipse_9" data-name="Elipse 9" cx="2.071" cy="2.071" r="2.071" transform="translate(0)" fill="#cbbf91"/>
      </g>
      <g id="Grupo_77" data-name="Grupo 77" transform="translate(75.924 133.49)">
        <circle id="Elipse_10" data-name="Elipse 10" cx="2.071" cy="2.071" r="2.071" fill="#cbbf91"/>
      </g>
      <g id="Grupo_78" data-name="Grupo 78" transform="translate(66.177 131.418)">
        <circle id="Elipse_11" data-name="Elipse 11" cx="2.071" cy="2.071" r="2.071" fill="#cbbf91"/>
      </g>
      <g id="Grupo_79" data-name="Grupo 79" transform="translate(93.502 31.658)">
        <circle id="Elipse_12" data-name="Elipse 12" cx="4.235" cy="4.235" r="4.235" fill="#cbbf91"/>
      </g>
      <g id="Grupo_80" data-name="Grupo 80" transform="translate(105.608 49.818)">
        <circle id="Elipse_13" data-name="Elipse 13" cx="4.143" cy="4.143" r="4.143" fill="#cbbf91"/>
      </g>
      <g id="Grupo_81" data-name="Grupo 81" transform="translate(46.645 105.354)">
        <circle id="Elipse_14" data-name="Elipse 14" cx="4.142" cy="4.142" r="4.142" transform="translate(0)" fill="#cbbf91"/>
      </g>
      <g id="Grupo_82" data-name="Grupo 82" transform="translate(54.496 31.14)">
        <path id="Caminho_41" data-name="Caminho 41" d="M70.867,43.59c0,9.708,4.188,17.58-5.521,17.58a17.582,17.582,0,0,1,0-35.163C75.055,26.008,70.867,33.882,70.867,43.59Z" transform="translate(-47.766 -26.007)" fill="#cbbf91"/>
      </g>
      <g id="Grupo_83" data-name="Grupo 83" transform="translate(73.137 31.182)">
        <path id="Caminho_42" data-name="Caminho 42" d="M63.334,61.124c8.323-.577,4.46-8.207,4.46-17.539s3.864-16.966-4.46-17.543Z" transform="translate(-63.334 -26.042)" fill="#cbbf91"/>
      </g>
    </g>
    <g id="egg-2" data-name="egg" transform="translate(1053.729 476)">
      <g id="Grupo_66-2" data-name="Grupo 66" transform="translate(15.041 1.375)">
        <path id="Caminho_34-2" data-name="Caminho 34" d="M103.446,70.688a44.14,44.14,0,0,1-88.28,0C15.166,46.309,34.927,1.5,59.307,1.5S103.446,46.309,103.446,70.688Z" transform="translate(-15.166 -1.5)" fill="#fffffa"/>
      </g>
      <g id="Grupo_67-2" data-name="Grupo 67" transform="translate(59.182 1.375)">
        <path id="Caminho_35-2" data-name="Caminho 35" d="M63.334,1.5V114.828a44.139,44.139,0,0,0,44.139-44.139C107.473,46.309,87.712,1.5,63.334,1.5Z" transform="translate(-63.334 -1.5)" fill="#f9f9e4"/>
      </g>
      <g id="Grupo_70-2" data-name="Grupo 70" transform="translate(22.081 87.769)">
        <g id="Grupo_68-2" data-name="Grupo 68">
          <path id="Caminho_36-2" data-name="Caminho 36" d="M32.6,103.611c4.073,4.451,8.559,6.631,6.175,8.813s-7.621.34-11.7-4.111-5.44-9.83-3.053-12.013S28.525,99.157,32.6,103.611Z" transform="translate(-22.849 -95.775)" fill="#cbbf91"/>
        </g>
        <g id="Grupo_69-2" data-name="Grupo 69" transform="translate(57.611)">
          <path id="Caminho_37-2" data-name="Caminho 37" d="M92.556,103.611c-4.073,4.451-8.559,6.631-6.175,8.813s7.621.34,11.7-4.111,5.44-9.83,3.053-12.013S96.628,99.157,92.556,103.611Z" transform="translate(-85.716 -95.775)" fill="#cbbf91"/>
        </g>
      </g>
      <g id="Grupo_71-2" data-name="Grupo 71" transform="translate(13.666)">
        <path id="Caminho_38-2" data-name="Caminho 38" d="M59.182,116.077A45.566,45.566,0,0,1,13.666,70.563c0-12.776,5.143-30.208,13.1-44.409C36.224,9.289,47.735,0,59.182,0s22.957,9.289,32.41,26.154c7.961,14.2,13.1,31.632,13.1,44.409A45.565,45.565,0,0,1,59.182,116.077Zm0-113.328c-14.043,0-24.833,15.506-30.014,24.749-7.747,13.82-12.753,30.724-12.753,43.064a42.766,42.766,0,0,0,85.531,0c0-12.34-5.005-29.244-12.753-43.064C84.013,18.256,73.224,2.749,59.182,2.749Z" transform="translate(-13.666)" fill="#5a5a5a"/>
      </g>
      <g id="Grupo_72-2" data-name="Grupo 72" transform="translate(53.855 51.42)">
        <path id="Caminho_39-2" data-name="Caminho 39" d="M88.772,86.681c-5.744,12.44-17.472,19.259-26.2,15.231S57.9,90.558,63.646,78.117s11-25.283,19.724-21.252S94.514,74.243,88.772,86.681Z" transform="translate(-57.521 -56.111)" fill="#cbbf91"/>
      </g>
      <g id="Grupo_73-2" data-name="Grupo 73" transform="translate(59.183 51.42)">
        <path id="Caminho_40-2" data-name="Caminho 40" d="M83.857,56.865c-8.725-4.029-13.982,8.814-19.724,21.252l-.8,1.723v22.185c8.695,3.765,20.241-3.032,25.924-15.344C95,74.243,92.582,60.892,83.857,56.865Z" transform="translate(-63.335 -56.111)" fill="#cbbf91"/>
      </g>
      <g id="Grupo_74-2" data-name="Grupo 74" transform="translate(30.995 32.52)">
        <circle id="Elipse_7-2" data-name="Elipse 7" cx="2.804" cy="2.804" r="2.804" fill="#cbbf91"/>
      </g>
      <g id="Grupo_75-2" data-name="Grupo 75" transform="translate(42.821 20.814)">
        <circle id="Elipse_8-2" data-name="Elipse 8" cx="1.097" cy="1.097" r="1.097" fill="#cbbf91"/>
      </g>
      <g id="Grupo_76-2" data-name="Grupo 76" transform="translate(36.603 49.834)">
        <circle id="Elipse_9-2" data-name="Elipse 9" cx="1.585" cy="1.585" r="1.585" transform="translate(0)" fill="#cbbf91"/>
      </g>
      <g id="Grupo_77-2" data-name="Grupo 77" transform="translate(61.315 102.166)">
        <circle id="Elipse_10-2" data-name="Elipse 10" cx="1.585" cy="1.585" r="1.585" fill="#cbbf91"/>
      </g>
      <g id="Grupo_78-2" data-name="Grupo 78" transform="translate(53.855 100.58)">
        <circle id="Elipse_11-2" data-name="Elipse 11" cx="1.585" cy="1.585" r="1.585" fill="#cbbf91"/>
      </g>
      <g id="Grupo_79-2" data-name="Grupo 79" transform="translate(74.768 24.23)">
        <circle id="Elipse_12-2" data-name="Elipse 12" cx="3.241" cy="3.241" r="3.241" fill="#cbbf91"/>
      </g>
      <g id="Grupo_80-2" data-name="Grupo 80" transform="translate(84.034 38.128)">
        <circle id="Elipse_13-2" data-name="Elipse 13" cx="3.171" cy="3.171" r="3.171" fill="#cbbf91"/>
      </g>
      <g id="Grupo_81-2" data-name="Grupo 81" transform="translate(38.906 80.632)">
        <circle id="Elipse_14-2" data-name="Elipse 14" cx="3.17" cy="3.17" r="3.17" transform="translate(0)" fill="#cbbf91"/>
      </g>
      <g id="Grupo_82-2" data-name="Grupo 82" transform="translate(44.915 23.833)">
        <path id="Caminho_41-2" data-name="Caminho 41" d="M65.446,39.464c0,7.43,3.206,13.455-4.226,13.455a13.456,13.456,0,0,1,0-26.912C68.652,26.008,65.446,32.034,65.446,39.464Z" transform="translate(-47.766 -26.007)" fill="#cbbf91"/>
      </g>
      <g id="Grupo_83-2" data-name="Grupo 83" transform="translate(59.182 23.865)">
        <path id="Caminho_42-2" data-name="Caminho 42" d="M63.334,52.892c6.37-.442,3.414-6.281,3.414-13.423S69.7,26.484,63.334,26.042Z" transform="translate(-63.334 -26.042)" fill="#cbbf91"/>
      </g>
    </g>
    <g id="egg-3" data-name="egg" transform="translate(825.729 476)">
      <g id="Grupo_66-3" data-name="Grupo 66" transform="translate(15.041 1.375)">
        <path id="Caminho_34-3" data-name="Caminho 34" d="M103.446,70.688a44.14,44.14,0,0,1-88.28,0C15.166,46.309,34.927,1.5,59.307,1.5S103.446,46.309,103.446,70.688Z" transform="translate(-15.166 -1.5)" fill="#fffffa"/>
      </g>
      <g id="Grupo_67-3" data-name="Grupo 67" transform="translate(59.182 1.375)">
        <path id="Caminho_35-3" data-name="Caminho 35" d="M63.334,1.5V114.828a44.139,44.139,0,0,0,44.139-44.139C107.473,46.309,87.712,1.5,63.334,1.5Z" transform="translate(-63.334 -1.5)" fill="#f9f9e4"/>
      </g>
      <g id="Grupo_70-3" data-name="Grupo 70" transform="translate(22.081 87.769)">
        <g id="Grupo_68-3" data-name="Grupo 68">
          <path id="Caminho_36-3" data-name="Caminho 36" d="M32.6,103.611c4.073,4.451,8.559,6.631,6.175,8.813s-7.621.34-11.7-4.111-5.44-9.83-3.053-12.013S28.525,99.157,32.6,103.611Z" transform="translate(-22.849 -95.775)" fill="#cbbf91"/>
        </g>
        <g id="Grupo_69-3" data-name="Grupo 69" transform="translate(57.611)">
          <path id="Caminho_37-3" data-name="Caminho 37" d="M92.556,103.611c-4.073,4.451-8.559,6.631-6.175,8.813s7.621.34,11.7-4.111,5.44-9.83,3.053-12.013S96.628,99.157,92.556,103.611Z" transform="translate(-85.716 -95.775)" fill="#cbbf91"/>
        </g>
      </g>
      <g id="Grupo_71-3" data-name="Grupo 71" transform="translate(13.666)">
        <path id="Caminho_38-3" data-name="Caminho 38" d="M59.182,116.077A45.566,45.566,0,0,1,13.666,70.563c0-12.776,5.143-30.208,13.1-44.409C36.224,9.289,47.735,0,59.182,0s22.957,9.289,32.41,26.154c7.961,14.2,13.1,31.632,13.1,44.409A45.565,45.565,0,0,1,59.182,116.077Zm0-113.328c-14.043,0-24.833,15.506-30.014,24.749-7.747,13.82-12.753,30.724-12.753,43.064a42.766,42.766,0,0,0,85.531,0c0-12.34-5.005-29.244-12.753-43.064C84.013,18.256,73.224,2.749,59.182,2.749Z" transform="translate(-13.666)" fill="#5a5a5a"/>
      </g>
      <g id="Grupo_72-3" data-name="Grupo 72" transform="translate(53.855 51.42)">
        <path id="Caminho_39-3" data-name="Caminho 39" d="M88.772,86.681c-5.744,12.44-17.472,19.259-26.2,15.231S57.9,90.558,63.646,78.117s11-25.283,19.724-21.252S94.514,74.243,88.772,86.681Z" transform="translate(-57.521 -56.111)" fill="#cbbf91"/>
      </g>
      <g id="Grupo_73-3" data-name="Grupo 73" transform="translate(59.183 51.42)">
        <path id="Caminho_40-3" data-name="Caminho 40" d="M83.857,56.865c-8.725-4.029-13.982,8.814-19.724,21.252l-.8,1.723v22.185c8.695,3.765,20.241-3.032,25.924-15.344C95,74.243,92.582,60.892,83.857,56.865Z" transform="translate(-63.335 -56.111)" fill="#cbbf91"/>
      </g>
      <g id="Grupo_74-3" data-name="Grupo 74" transform="translate(30.995 32.52)">
        <circle id="Elipse_7-3" data-name="Elipse 7" cx="2.804" cy="2.804" r="2.804" fill="#cbbf91"/>
      </g>
      <g id="Grupo_75-3" data-name="Grupo 75" transform="translate(42.821 20.814)">
        <circle id="Elipse_8-3" data-name="Elipse 8" cx="1.097" cy="1.097" r="1.097" fill="#cbbf91"/>
      </g>
      <g id="Grupo_76-3" data-name="Grupo 76" transform="translate(36.603 49.834)">
        <circle id="Elipse_9-3" data-name="Elipse 9" cx="1.585" cy="1.585" r="1.585" transform="translate(0)" fill="#cbbf91"/>
      </g>
      <g id="Grupo_77-3" data-name="Grupo 77" transform="translate(61.315 102.166)">
        <circle id="Elipse_10-3" data-name="Elipse 10" cx="1.585" cy="1.585" r="1.585" fill="#cbbf91"/>
      </g>
      <g id="Grupo_78-3" data-name="Grupo 78" transform="translate(53.855 100.58)">
        <circle id="Elipse_11-3" data-name="Elipse 11" cx="1.585" cy="1.585" r="1.585" fill="#cbbf91"/>
      </g>
      <g id="Grupo_79-3" data-name="Grupo 79" transform="translate(74.768 24.23)">
        <circle id="Elipse_12-3" data-name="Elipse 12" cx="3.241" cy="3.241" r="3.241" fill="#cbbf91"/>
      </g>
      <g id="Grupo_80-3" data-name="Grupo 80" transform="translate(84.034 38.128)">
        <circle id="Elipse_13-3" data-name="Elipse 13" cx="3.171" cy="3.171" r="3.171" fill="#cbbf91"/>
      </g>
      <g id="Grupo_81-3" data-name="Grupo 81" transform="translate(38.906 80.632)">
        <circle id="Elipse_14-3" data-name="Elipse 14" cx="3.17" cy="3.17" r="3.17" transform="translate(0)" fill="#cbbf91"/>
      </g>
      <g id="Grupo_82-3" data-name="Grupo 82" transform="translate(44.915 23.833)">
        <path id="Caminho_41-3" data-name="Caminho 41" d="M65.446,39.464c0,7.43,3.206,13.455-4.226,13.455a13.456,13.456,0,0,1,0-26.912C68.652,26.008,65.446,32.034,65.446,39.464Z" transform="translate(-47.766 -26.007)" fill="#cbbf91"/>
      </g>
      <g id="Grupo_83-3" data-name="Grupo 83" transform="translate(59.182 23.865)">
        <path id="Caminho_42-3" data-name="Caminho 42" d="M63.334,52.892c6.37-.442,3.414-6.281,3.414-13.423S69.7,26.484,63.334,26.042Z" transform="translate(-63.334 -26.042)" fill="#cbbf91"/>
      </g>
    </g>
  </g>
</svg>
