<svg xmlns="http://www.w3.org/2000/svg" width="20.797" height="20.797" viewBox="0 0 20.797 20.797">
  <g id="Grupo_44" data-name="Grupo 44" transform="translate(-1691.2 -430.2)">
    <g id="Grupo_43" data-name="Grupo 43" transform="translate(1692 434.581)">
      <g id="Grupo_42" data-name="Grupo 42" transform="translate(0)">
        <g id="Grupo_40" data-name="Grupo 40">
          <line id="Linha_2" data-name="Linha 2" x2="12.571" transform="translate(6.626 0)" fill="none" stroke="#5a5a5a" stroke-linecap="round" stroke-linejoin="round" stroke-width="1.6"/>
          <line id="Linha_3" data-name="Linha 3" x2="4.107" transform="translate(0 0)" fill="none" stroke="#5a5a5a" stroke-linecap="round" stroke-linejoin="round" stroke-width="1.6"/>
          <path id="Caminho_12" data-name="Caminho 12" d="M197.154,744.44v13.483a2.133,2.133,0,0,1-2.133,2.133h-11.35a2.133,2.133,0,0,1-2.133-2.133V744.44" transform="translate(-179.717 -744.44)" fill="none" stroke="#5a5a5a" stroke-linecap="round" stroke-linejoin="round" stroke-width="1.6"/>
        </g>
        <g id="Grupo_41" data-name="Grupo 41" transform="translate(5.711 3.965)">
          <line id="Linha_4" data-name="Linha 4" y2="7.686" transform="translate(7.836)" fill="none" stroke="#5a5a5a" stroke-linecap="round" stroke-linejoin="round" stroke-width="1.6"/>
          <line id="Linha_5" data-name="Linha 5" y2="7.686" stroke-width="1.6" stroke="#5a5a5a" stroke-linecap="round" stroke-linejoin="round" fill="none"/>
          <line id="Linha_6" data-name="Linha 6" y2="7.686" transform="translate(3.927)" fill="none" stroke="#5a5a5a" stroke-linecap="round" stroke-linejoin="round" stroke-width="1.6"/>
        </g>
      </g>
    </g>
    <path id="Retângulo_14" data-name="Retângulo 14" d="M2.973,0h0A2.973,2.973,0,0,1,5.946,2.973v.608a0,0,0,0,1,0,0H0a0,0,0,0,1,0,0V2.973A2.973,2.973,0,0,1,2.973,0Z" transform="translate(1698.625 431)" fill="none" stroke="#5a5a5a" stroke-linecap="round" stroke-linejoin="round" stroke-width="1.6"/>
  </g>
</svg>
